<svg width="1440" height="581" viewBox="0 0 1440 581" fill="none" xmlns="http://www.w3.org/2000/svg">
<rect width="1440" height="581" fill="url(#paint0_linear)"/>
<mask id="mask0" mask-type="alpha" maskUnits="userSpaceOnUse" x="0" y="421" width="263" height="160">
<rect y="421" width="263" height="160" fill="#C4C4C4"/>
</mask>
<g mask="url(#mask0)">
<mask id="mask1" mask-type="alpha" maskUnits="userSpaceOnUse" x="120" y="514" width="144" height="125">
<path d="M225.516 586.664C225.516 586.664 211.312 610.061 166.992 609.075L120.078 633.41C120.078 633.41 213.674 658.97 255.849 600.781C255.849 600.781 285.315 544.56 232.162 514.202C232.162 514.202 249.784 557.366 225.516 586.664Z" fill="white"/>
</mask>
<g mask="url(#mask1)">
<path fill-rule="evenodd" clip-rule="evenodd" d="M225.516 586.664C225.516 586.664 211.312 610.061 166.992 609.075L120.078 633.41C120.078 633.41 213.674 658.97 255.849 600.781C255.849 600.781 285.315 544.56 232.162 514.202C232.162 514.202 249.784 557.366 225.516 586.664Z" fill="url(#paint1_linear)" fill-opacity="0.1"/>
</g>
<mask id="mask2" mask-type="alpha" maskUnits="userSpaceOnUse" x="-40" y="488" width="119" height="116">
<path d="M-38.2848 536.564C-54.5316 601.937 49.9931 603.759 49.9931 603.759C-21.3551 596.621 1.98256 541.711 1.98256 541.711C31.3209 490.251 78.2016 509.692 78.2016 509.692C63.1333 494.265 46.764 488.324 31.1659 488.326C-2.9531 488.328 -33.3636 516.767 -38.2848 536.564Z" fill="white"/>
</mask>
<g mask="url(#mask2)">
<path fill-rule="evenodd" clip-rule="evenodd" d="M-38.2848 536.564C-54.5316 601.937 49.9931 603.759 49.9931 603.759C-21.3551 596.621 1.98256 541.711 1.98256 541.711C31.3209 490.251 78.2016 509.692 78.2016 509.692C63.1333 494.265 46.764 488.324 31.1659 488.326C-2.9531 488.328 -33.3636 516.767 -38.2848 536.564Z" fill="url(#paint2_linear)" fill-opacity="0.1"/>
</g>
<mask id="mask3" mask-type="alpha" maskUnits="userSpaceOnUse" x="7" y="425" width="198" height="214">
<path d="M89.3043 425.34C64.7362 426.791 27.5224 434.06 7.5686 479.564C7.5686 479.564 116.934 398.418 161.449 517.104C161.449 517.104 179.591 602.867 101.438 638.096C101.438 638.096 212.74 636.655 204.426 513.311C203.102 493.682 195.972 471.307 176.159 452.502C161.137 438.244 139.755 425 100.509 425C96.9245 425 93.1955 425.11 89.3043 425.34Z" fill="white"/>
</mask>
<g mask="url(#mask3)">
<path fill-rule="evenodd" clip-rule="evenodd" d="M89.3043 425.34C64.7362 426.791 27.5224 434.06 7.5686 479.564C7.5686 479.564 116.934 398.418 161.449 517.104C161.449 517.104 179.591 602.867 101.438 638.096C101.438 638.096 212.74 636.655 204.426 513.311C203.102 493.682 195.972 471.307 176.159 452.502C161.137 438.244 139.755 425 100.509 425C96.9245 425 93.1955 425.11 89.3043 425.34Z" fill="url(#paint3_linear)" fill-opacity="0.1"/>
</g>
</g>
<defs>
<linearGradient id="paint0_linear" x1="0" y1="0" x2="1467.13" y2="501.656" gradientUnits="userSpaceOnUse">
<stop stop-color="#1C639C"/>
<stop offset="1" stop-color="#44A0C9"/>
</linearGradient>
<linearGradient id="paint1_linear" x1="192.036" y1="514.202" x2="192.036" y2="639" gradientUnits="userSpaceOnUse">
<stop stop-color="white"/>
<stop offset="1" stop-color="white" stop-opacity="0"/>
</linearGradient>
<linearGradient id="paint2_linear" x1="19.1008" y1="488.326" x2="19.1008" y2="603.759" gradientUnits="userSpaceOnUse">
<stop stop-color="white"/>
<stop offset="1" stop-color="white" stop-opacity="0"/>
</linearGradient>
<linearGradient id="paint3_linear" x1="106.219" y1="425" x2="106.219" y2="638.096" gradientUnits="userSpaceOnUse">
<stop stop-color="white"/>
<stop offset="1" stop-color="white" stop-opacity="0"/>
</linearGradient>
</defs>
</svg>
